<svg width="20" height="20" viewBox="0 0 20 20" fill="none" xmlns="http://www.w3.org/2000/svg">
<path d="M19 10C19 11.78 18.4722 13.5201 17.4832 15.0001C16.4943 16.4802 15.0887 17.6337 13.4442 18.3149C11.7996 18.9961 9.99002 19.1743 8.24419 18.8271C6.49836 18.4798 4.89471 17.6226 3.63604 16.364C2.37737 15.1053 1.5202 13.5016 1.17293 11.7558C0.825665 10.01 1.0039 8.20038 1.68508 6.55585C2.36627 4.91131 3.51983 3.50571 4.99987 2.51677C6.47991 1.52784 8.21997 1 10 1" stroke="white" stroke-width="2" stroke-linecap="round"/>
<path fill-rule="evenodd" clip-rule="evenodd" d="M7.7236 8.97952C7.3416 8.58052 6.7096 8.56452 6.3096 8.94652C5.9106 9.32752 5.8946 9.96052 6.2766 10.3605L8.4996 12.6905C8.6876 12.8875 8.9476 12.9995 9.2196 13.0005H9.2236C9.4946 13.0005 9.7536 12.8905 9.9416 12.6955L16.7186 5.69552C17.1026 5.29852 17.0926 4.66552 16.6956 4.28152C16.2976 3.89652 15.6646 3.90852 15.2816 4.30452L9.2286 10.5575L7.7236 8.97952Z" fill="white"/>
</svg>
